<?xml version="1.0" encoding="utf-8"?>
<!-- Generator: Adobe Illustrator 25.3.1, SVG Export Plug-In . SVG Version: 6.00 Build 0)  -->
<svg version="1.1" id="Layer_1" xmlns="http://www.w3.org/2000/svg" xmlns:xlink="http://www.w3.org/1999/xlink" x="0px" y="0px"
	 viewBox="0 0 522.4 325.2" style="enable-background:new 0 0 522.4 325.2;" xml:space="preserve">
<style type="text/css">
	.st0{fill:#EAB64B;}
	.st1{fill:#4C2F83;}
</style>
<g>
	<g>
		<path class="st0" d="M322.2,161.7c-12.3,30.5,2.5,65.1,32.9,77.4c30.5,12.3,65.1-2.5,77.4-32.9c12.3-30.5-2.5-65.1-32.9-77.4
			C369.2,116.5,334.5,131.2,322.2,161.7z"/>
		<polygon class="st0" points="426.1,124.3 460.7,99 436.1,134.1 		"/>
		<polygon class="st0" points="397.6,109.2 434.3,42.7 415.4,116.5 		"/>
		<polygon class="st0" points="369.7,107.4 376.3,65 383.7,107.2 		"/>
		<polygon class="st0" points="340.9,116.2 317.8,43.8 353.8,110.7 		"/>
		<polygon class="st0" points="317.7,135.2 292.4,100.6 327.6,125.3 		"/>
		<polygon class="st0" points="308.9,148.8 236.2,127 303.7,161.8 		"/>
		<polygon class="st0" points="300.6,177.7 258.4,185.1 300.8,191.7 		"/>
		<polygon class="st0" points="304.1,207.5 237.3,243.5 309.6,220.4 		"/>
		<polygon class="st0" points="318.7,233.8 294,268.9 328.7,243.6 		"/>
		<polygon class="st0" points="342.2,252.4 320.5,325.2 355.2,257.7 		"/>
		<polygon class="st0" points="444.4,146.2 517.3,124.9 452,163.9 		"/>
		<polygon class="st0" points="454.2,176.2 496.5,183.1 454.2,190.2 		"/>
		<polygon class="st0" points="452.9,200.4 522.4,230.9 447.3,218.8 		"/>
		<polygon class="st0" points="440.2,228.8 468.1,261.4 431.2,239.5 		"/>
		<polygon class="st0" points="420.9,247.9 444.7,320 403.4,256.1 		"/>
		<polygon class="st0" points="389.2,260.7 382.9,303.1 375.2,260.9 		"/>
	</g>
	<g>
		<path class="st1" d="M107.6,97.7c-9.9,0-18.6-0.4-26.7-0.7V1.5c7.5-0.3,19.2-0.7,30.9-0.7c29.7,0,48.5,13.2,48.5,46.8
			C160.4,80.6,138.8,97.7,107.6,97.7z M110.6,16.3c-4.3,0-8.2,0.1-11.2,0.4v64.6c2.6,0.4,6.4,0.7,10.1,0.7c18,0,31.1-10.2,31.1-32.9
			C140.5,28.5,132.4,16.3,110.6,16.3z"/>
		<path class="st1" d="M233.1,97.2l-6.7-19.6h-36.2l-6.7,19.6h-18.6l33.5-95.8h20.9l34.2,95.8H233.1z M212.6,37.9
			c-1.8-5.2-3.3-9.9-4.4-15.3h-0.1c-1.1,5-2.7,10.5-4.5,16L194.9,63h26.7L212.6,37.9z"/>
		<path class="st1" d="M357.5,97.2h-22.7l-13.9-52.8c-1.7-6.1-2.7-12.9-3.7-19.7h-0.1c-0.7,6.7-1.8,12.9-3.5,19.3l-14,53.2h-21.4
			L253.8,1.4h19.7l13.1,52.9c1.6,6.2,2.7,12.8,3.5,19.4h0.1c1-6.4,2-12.8,3.7-18.9l14.6-53.5h19.6l14.8,53.2
			c1.4,5.2,3,11.9,3.8,18.6h0.1c1-6.7,2.1-12.6,3.5-18.3l13.1-53.5h18.4L357.5,97.2z"/>
		<path class="st1" d="M468.5,21.3c-7.7-3-16.5-4.8-25.4-4.8c-18.9,0-32.5,11.9-32.5,33.3c0,20.3,11.1,32.2,30.5,32.2
			c4.5,0,8.5-0.6,12.2-1.7V46.9h18.4v45.7c-9.5,3.8-21.3,6-32.8,6c-30.4,0-48.4-17.9-48.4-47.1c0-30.1,20.4-51.5,53.6-51.5
			c9.5,0,18.9,1.7,27.1,4.1L468.5,21.3z"/>
	</g>
	<g>
		<path class="st1" d="M47.7,181.4c0-3.9,0.3-10,1.1-14l-0.3-0.1c-3.9,9.3-12.3,15.4-23.1,15.4C8.5,182.7,0,170.4,0,150.3
			c0-24.1,13.9-38.7,35.6-38.7c3.7,0,7.5,0.3,11.6,0.7V90c-3.3-0.6-8-1.1-12.1-1.4v-7.3c6.9-0.8,16.5-1.4,24.5-1v91.4
			c3.3,0.6,8,1.1,12.1,1.4v7.3C64.9,181.3,55.4,181.9,47.7,181.4z M47.3,123c-4.2-1.1-8.3-1.5-12.2-1.5c-13.2,0-21.9,7.9-21.9,27.7
			c0,14.8,4.8,23.3,15.2,23.3c12.5,0,18.8-14.5,18.8-26.6L47.3,123L47.3,123z"/>
		<path class="st1" d="M120.6,181.4c0-4.8,0-9.8,0.7-13.7H121c-3.3,8.5-12.1,15-23.4,15s-19.1-6.1-19.1-17
			c0-15.1,15.4-24.7,41.4-24.7v-5.1c0-9.6-3.7-14.7-15.1-14.7c-6.5,0-14.8,2.1-20.8,5.7l-1.2-10.7c6.6-2.8,15-5,24.1-5
			c19.8,0,25.5,9.3,25.5,23v37.5c3.3,0.6,8,1.1,12.1,1.4v7.3C137.5,181.3,128,181.9,120.6,181.4z M119.9,149.7
			c-24,0-29.2,7.3-29.2,13.6c0,5.8,4.2,9.6,10.5,9.6c11.2,0,18.7-11.1,18.7-21.9V149.7z"/>
		<path class="st1" d="M151.4,181.4v-8.7l33-49.3c-3.9,0.1-10.7,0.3-18.1,0.3h-14.1v-11.1H199v8.7l-32.7,48.9
			c3.7-0.1,12.6-0.3,18.7-0.3h14.5v11.5H151.4z"/>
		<path class="st1" d="M268.2,146.2h-45c-0.6,18.4,7.1,26.3,21.8,26.3c7.1,0,14.5-1.7,20.1-4.3l1.1,10.1c-6.7,2.8-14.7,4.3-23.3,4.3
			c-21.2,0-32.6-11.1-32.6-35.3c0-20.6,11.2-36,30.8-36c19.4,0,27.6,13.2,27.6,29C268.6,142,268.4,143.9,268.2,146.2z M240.4,120.5
			c-9,0-15.4,6.8-16.8,16.9h32.1C256.1,127.3,250.1,120.5,240.4,120.5z"/>
	</g>
</g>
</svg>
